HIERARCHY
ROOT Hips
{
	OFFSET	0.00	0.00	0.00
	CHANNELS 6 Xposition Yposition Zposition Zrotation Xrotation Yrotation
	JOINT LeftUpLeg
	{
		OFFSET	 0.126116	-0.065224	 0.014019
		CHANNELS 3 Zrotation Xrotation Yrotation
		JOINT LeftLeg
		{
			OFFSET	 0.000000	 0.569914	 0.000000
			CHANNELS 3 Zrotation Xrotation Yrotation
			JOINT LeftFoot
			{
				OFFSET	 0.000000	 0.544423	 0.000000
				CHANNELS 3 Zrotation Xrotation Yrotation
				JOINT LeftToeBase
				{
					OFFSET	 0.000000	 0.207117	 0.000000
					CHANNELS 3 Zrotation Xrotation Yrotation
					End Site
					{
						OFFSET	 0.000000	 0.207117	 0.000000
					}
				}
			}
		}
	}
	JOINT RightUpLeg
	{
		OFFSET	-0.124023	-0.065224	 0.008373
		CHANNELS 3 Zrotation Xrotation Yrotation
		JOINT RightLeg
		{
			OFFSET	 0.000000	 0.570047	 0.000000
			CHANNELS 3 Zrotation Xrotation Yrotation
			JOINT RightFoot
			{
				OFFSET	 0.000000	 0.544354	 0.000000
				CHANNELS 3 Zrotation Xrotation Yrotation
				JOINT RightToeBase
				{
					OFFSET	 0.000000	 0.207540	 0.000000
					CHANNELS 3 Zrotation Xrotation Yrotation
					End Site
					{
						OFFSET	 0.000000	 0.207540	 0.000000
					}
				}
			}
		}
	}
	JOINT Spine
	{
		OFFSET	 0.000184	 0.117403	 0.007763
		CHANNELS 3 Zrotation Xrotation Yrotation
		JOINT Spine1
		{
			OFFSET	 0.000000	 0.137269	 0.000000
			CHANNELS 3 Zrotation Xrotation Yrotation
			JOINT Spine2
			{
				OFFSET	 0.000000	 0.156879	 0.000000
				CHANNELS 3 Zrotation Xrotation Yrotation
				JOINT LeftShoulder
				{
					OFFSET	 0.080501	 0.160143	 0.002496
					CHANNELS 3 Zrotation Xrotation Yrotation
					JOINT LeftArm
					{
						OFFSET	 0.000000	 0.164363	 0.000000
						CHANNELS 3 Zrotation Xrotation Yrotation
						JOINT LeftForeArm
						{
							OFFSET	 0.000000	 0.364576	 0.000000
							CHANNELS 3 Zrotation Xrotation Yrotation
							JOINT LeftHand
							{
								OFFSET	 0.000000	 0.360812	 0.000000
								CHANNELS 3 Zrotation Xrotation Yrotation
								JOINT LeftHandIndex1
								{
									OFFSET	 0.000000	 0.086006	 0.000000
									CHANNELS 3 Zrotation Xrotation Yrotation
									JOINT LeftHandIndex2
									{
										OFFSET	 0.000000	 0.047237	 0.000000
										CHANNELS 3 Zrotation Xrotation Yrotation
										JOINT LeftHandIndex3
										{
											OFFSET	-0.004284	 0.038165	 0.000551
											CHANNELS 3 Zrotation Xrotation Yrotation
											End Site
											{
												OFFSET	-0.004284	 0.038165	 0.000551
											}
										}
									}
								}
							}
						}
					}
				}
				JOINT Neck
				{
					OFFSET	 0.000000	 0.176489	 0.000000
					CHANNELS 3 Zrotation Xrotation Yrotation
					JOINT Head
					{
						OFFSET	 0.000000	 0.077941	 0.001747
						CHANNELS 3 Zrotation Xrotation Yrotation
						End Site
						{
							OFFSET	 0.000000	 0.077941	 0.001747
						}
					}
				}
				JOINT RightShoulder
				{
					OFFSET	-0.080363	 0.159706	-0.000306
					CHANNELS 3 Zrotation Xrotation Yrotation
					JOINT RightArm
					{
						OFFSET	 0.000000	 0.164196	 0.000000
						CHANNELS 3 Zrotation Xrotation Yrotation
						JOINT RightForeArm
						{
							OFFSET	 0.000000	 0.365611	 0.000000
							CHANNELS 3 Zrotation Xrotation Yrotation
							JOINT RightHand
							{
								OFFSET	 0.000000	 0.360648	 0.000000
								CHANNELS 3 Zrotation Xrotation Yrotation
								JOINT RightHandIndex1
								{
									OFFSET	 0.000000	 0.069977	 0.000000
									CHANNELS 3 Zrotation Xrotation Yrotation
									JOINT RightHandIndex2
									{
										OFFSET	 0.000000	 0.052305	 0.000000
										CHANNELS 3 Zrotation Xrotation Yrotation
										JOINT RightHandIndex3
										{
											OFFSET	 0.009002	 0.042196	 0.000782
											CHANNELS 3 Zrotation Xrotation Yrotation
											End Site
											{
												OFFSET	 0.009002	 0.042196	 0.000782
											}
										}
									}
								}
							}
						}
					}
				}
			}
		}
	}
}
MOTION
Frames:    8
Frame Time: 0.03333334
-0.112813	 1.269308	-0.065954	 9.463325	-1.567670	-174.889700	-158.780000	 19.318940	-24.079040	 7.387443	-25.778700	 8.142941	 0.498514	 53.489540	-6.970707	 1.982208	 36.747890	-2.927340	 168.787000	 4.767744	 60.219720	-2.718164	-32.043980	 11.317420	 10.884170	 64.357990	-11.822770	-3.275762	 48.609210	 3.886908	-4.917894	 2.218115	 27.630580	-4.357432	 6.835140	 4.097798	 2.717775	-6.452878	-2.613089	-99.701250	 3.334278	 93.395120	 66.497900	 27.410740	-16.708580	 21.530780	-0.239445	-37.508380	 53.009880	 13.567340	-12.096250	 3.626841	 54.125490	-2.047278	-8.605822	 60.727010	 8.851273	 6.613014	 34.401920	 0.048745	 4.464276	-9.901954	-2.465400	 8.198982	-6.450841	-3.695089	 73.051220	 7.441061	-52.093230	-8.447839	 5.933747	 2.657034	-21.351510	-0.174048	 37.504870	-27.912210	-23.983840	-13.490000	-4.727531	-11.190430	-0.403223	 11.961230	 7.659848	-1.740805	-8.229368	-2.537555	 0.474353
-0.089927	 1.255555	-0.068194	 12.366350	-4.596611	-161.200300	-160.635200	 28.415320	-11.884720	 7.669935	-26.625620	 10.712350	 9.733022	 55.685740	-12.810620	 1.455369	 30.557950	-2.822292	 169.239000	 10.661170	 56.997530	-3.428555	-38.285640	 5.740672	 9.696358	 69.733890	-3.127221	-3.477777	 50.089850	 4.034410	-7.341786	 1.384801	 51.670170	-6.766856	 10.357380	 7.540438	 3.447455	-9.711105	-6.720154	-101.579000	 3.510742	 93.395840	 60.355640	 26.075560	-14.111350	 15.730380	-0.232480	-25.072180	 44.403000	 20.941950	 3.296802	 3.758523	 55.318390	-2.136611	-8.822682	 61.650200	 9.144914	 6.611794	 34.375660	 0.048889	 3.470260	-11.926740	-3.622497	 5.938137	-8.804440	-11.658010	 100.335800	 27.592790	-97.380160	-17.251750	 21.878310	-12.238480	-49.064560	-1.267216	 24.367240	 7.557302	 7.272809	-5.966084	-4.728607	-1.936255	-0.644228	 12.227460	 17.679790	-3.938366	-8.463976	 9.672264	-0.309301
-0.099839	 1.234450	-0.060280	 10.764420	-6.616763	-160.709900	-163.621800	 32.774190	-12.663840	 9.643556	-32.179120	 12.980150	 19.083020	 62.265530	-19.523440	 1.135299	 26.326520	-2.649142	 169.734300	 9.851436	 57.107950	-2.888898	-33.632620	 9.382196	 23.489680	 80.384930	-18.859060	-1.960186	 36.493290	 3.039676	-7.819139	 0.812658	 60.307900	-6.749557	 10.037320	 7.962434	 3.516701	-9.895200	-6.619213	-103.580000	 2.633420	 93.063570	 47.167410	 39.982260	-5.745776	 7.364448	-0.235598	-6.353211	 14.023050	 17.723840	 44.049560	 3.890679	 55.105390	-2.233301	-8.793148	 61.528560	 9.105286	 6.614835	 34.440480	 0.048572	 4.039361	-11.944770	-3.875981	 4.703669	-9.559954	-12.396640	 103.419400	 27.360360	-97.895120	-3.829376	 31.055840	-27.538810	-47.441200	-1.549991	 5.622069	 14.083990	 1.101145	-28.070210	-4.898611	 13.072740	-0.626180	 14.083690	 36.494430	-8.852511	-8.484359	 29.646000	-1.616456
-0.092126	 1.237358	-0.049651	 5.720356	-4.428866	-171.330500	-162.497300	 24.935760	-24.830510	 8.659403	-29.489420	 11.386420	 17.084110	 65.016110	-17.749350	 1.149031	 26.513230	-2.654521	 167.406800	 8.298219	 48.607910	-2.656274	-31.453840	 11.031900	 24.814380	 78.309270	-22.348370	-1.653027	 32.951480	 2.878454	-5.357184	 3.766912	 40.860280	-5.218442	 7.095395	 6.354904	 3.333951	-6.882436	-4.085967	-104.846900	 2.785388	 92.765250	 34.145310	 51.593140	-5.590149	 11.956430	-0.253300	 15.713140	 1.492944	 19.795000	 39.125270	 3.492493	 52.137870	-1.913994	-8.084876	 58.184380	 8.117434	 6.513824	 32.260170	 0.057495	 4.108346	-9.488756	-2.767966	 1.935103	-7.884861	-6.839417	 108.263700	 23.216800	-97.955230	-4.140221	 38.309190	-17.729370	-12.302300	-0.205324	-15.731320	-13.017760	 1.216429	-37.370590	-4.157146	 10.318320	-0.236897	 13.498090	 32.509340	-7.665860	-8.525282	 24.815210	-1.282923
-0.042447	 1.239043	-0.027649	 2.174607	-2.353604	 179.061100	-160.487100	 17.153620	-34.932170	 6.496211	-23.023690	 7.206702	 5.196775	 63.732990	-7.779177	 1.150056	 26.527260	-2.654925	 168.918800	 7.617994	 40.096290	-2.259210	-27.488320	 10.706040	 22.692800	 77.171210	-20.191720	-1.348290	 29.146750	 2.736031	-0.535522	 5.315399	 3.815171	-1.737841	 4.975860	 3.349790	 2.079134	-4.764066	-1.615552	-106.823300	 3.951339	 92.731360	 30.489710	 48.377090	 0.377822	 20.587320	-0.257443	 34.614880	 4.458173	 18.219940	 24.464870	 1.696531	 31.218770	-0.699730	-6.093244	 36.802430	 4.206255	 5.784211	 15.177290	-0.013691	 3.975129	-8.137017	-1.551336	 0.320938	-6.496777	-0.902794	 113.584200	 18.487450	-97.570560	 3.535602	 40.971290	-17.194350	-20.849700	-0.204021	-34.624330	 3.228386	 7.156532	-26.625370	-2.713770	 5.400227	 0.649213	 12.625350	 24.058470	-5.441716	-8.514358	 14.840350	-0.635400
-0.010524	 1.240355	-0.005250	 1.388696	-1.299089	 174.588600	-159.646900	 12.651440	-39.187260	 4.694440	-17.087990	 1.893733	-5.791871	 60.235390	 2.960979	 1.152278	 26.557490	-2.655807	 170.133400	 8.834380	 35.786020	-2.269917	-27.599250	 9.369552	 17.113410	 76.737310	-14.338080	-1.333527	 28.955060	 2.729605	 3.268335	 4.109928	-24.916570	-0.417427	 4.758146	 1.928942	 1.776832	-4.687975	-0.619831	-108.993000	 4.822007	 92.740230	 39.368500	 36.009540	-5.939737	 24.847630	-0.243260	 44.590750	 9.571671	 15.971210	 7.206009	 0.698899	 12.990100	-0.331602	-5.887002	 17.981440	 1.992251	 5.146688	 0.075556	-0.253136	 3.714690	-7.821415	-0.772904	-0.476375	-6.233942	 1.926321	 117.475900	 15.063040	-97.087390	 6.872066	 42.518310	-14.577850	-25.178760	-0.195066	-44.598530	 0.385176	 14.601610	-26.422270	-2.382208	 4.295998	 0.900926	 12.485070	 22.144560	-4.978347	-8.498160	 12.823690	-0.507929
-0.001333	 1.240329	 0.007889	 1.267305	-0.539736	 171.772800	-159.636300	 10.520980	-41.616310	 4.069332	-14.925230	-1.083532	-11.113220	 58.553470	 8.347900	 1.154645	 26.589610	-2.656747	 170.505400	 9.641992	 33.344550	-2.336735	-28.287060	 8.169516	 9.719967	 76.540790	-7.986533	-1.323534	 28.824700	 2.725283	 4.860590	 2.922904	-37.046920	 0.120126	 4.630162	 1.130309	 1.759884	-4.624811	-0.125459	-110.762100	 5.440888	 92.755460	 37.707580	 33.366220	-7.004454	 25.516200	-0.240383	 46.185350	 17.669170	 12.971020	 1.021019	 0.532341	 8.773808	-0.327695	-5.947177	 13.711730	 1.532363	 4.988183	-3.464756	-0.333558	 3.444421	-7.735781	-0.220405	-0.953170	-5.981323	 3.396696	 119.926300	 12.694630	-96.639690	 2.781060	 39.290390	-9.235145	-25.940090	-0.195964	-46.194470	-1.154419	 18.050250	-26.066050	-2.393507	 4.413036	 0.913393	 12.499130	 22.348670	-5.027218	-8.499876	 13.014480	-0.519973
-0.002083	 1.237432	 0.010807	 1.518824	-0.335759	 171.877800	-158.925800	 11.408930	-41.499630	 4.678532	-17.033550	 0.546350	-9.090452	 59.645930	 5.800671	 1.157268	 26.625060	-2.657779	 170.478600	 9.810340	 33.300430	-2.429016	-29.222350	 7.984222	 9.735069	 76.833760	-7.824778	-1.310562	 28.655280	 2.719708	 4.902576	 3.263885	-34.467240	 0.685143	 4.114140	 0.709352	 1.461057	-4.036588	 0.119713	-111.719600	 5.857920	 92.824580	 37.200290	 34.059480	-7.147923	 23.566890	-0.241072	 41.891490	 14.841140	 15.461970	 2.695632	 0.544283	 8.700483	-0.338564	-5.948547	 13.636380	 1.524279	 4.986397	-3.503935	-0.334505	 3.342016	-7.420969	 0.174551	-1.109752	-5.786527	 3.431704	 121.286800	 11.792080	-96.553990	-0.328480	 38.509480	-6.903848	-24.005260	-0.197480	-41.902470	-1.431238	 14.111700	-25.123620	-2.372947	 4.580845	 0.907899	 12.513900	 22.559770	-5.077876	-8.499912	 13.018380	-0.520217
